M48
; DRILL file {KiCad 8.0.4} date 2025-02-18T10:12:23-0800
; FORMAT={-:-/ absolute / inch / decimal}
; #@! TF.CreationDate,2025-02-18T10:12:23-08:00
; #@! TF.GenerationSoftware,Kicad,Pcbnew,8.0.4
; #@! TF.FileFunction,Plated,1,2,PTH
FMAT,2
INCH
; #@! TA.AperFunction,Plated,PTH,ViaDrill
T1C0.0118
; #@! TA.AperFunction,Plated,PTH,ComponentDrill
T2C0.0300
; #@! TA.AperFunction,Plated,PTH,ComponentDrill
T3C0.0315
; #@! TA.AperFunction,Plated,PTH,ComponentDrill
T4C0.0335
; #@! TA.AperFunction,Plated,PTH,ComponentDrill
T5C0.0400
; #@! TA.AperFunction,Plated,PTH,ComponentDrill
T6C0.0433
; #@! TA.AperFunction,Plated,PTH,ComponentDrill
T7C0.0480
; #@! TA.AperFunction,Plated,PTH,ComponentDrill
T8C0.0551
; #@! TA.AperFunction,Plated,PTH,ComponentDrill
T9C0.1390
; #@! TA.AperFunction,Plated,PTH,ComponentDrill
T10C0.1929
%
G90
G05
T1
X2.8012Y-3.1181
X2.8642Y-3.3504
X2.9843Y-3.3996
X3.1319Y-3.3622
X3.3917Y-3.1378
X3.5413Y-3.2087
X3.5492Y-2.9882
X3.874Y-1.1319
X5.1525Y-1.1447
X5.3839Y-2.0039
X5.5138Y-1.4823
X5.8583Y-1.7382
X5.9921Y-1.1791
X6.1181Y-1.0217
T2
X5.1102Y-5.374
X5.126Y-3.3504
X8.5748Y-5.374
X8.5906Y-3.3504
T3
X2.9203Y-1.501
X2.9203Y-1.601
X2.9203Y-1.701
X2.9203Y-1.801
X2.9203Y-1.901
X2.9203Y-2.001
X2.9203Y-2.101
X2.9203Y-2.201
X2.9203Y-2.301
X2.9203Y-2.401
X2.9203Y-2.501
X2.9203Y-2.601
X2.9203Y-2.701
X2.9203Y-2.801
X3.5203Y-1.501
X3.5203Y-1.601
X3.5203Y-1.701
X3.5203Y-1.801
X3.5203Y-1.901
X3.5203Y-2.001
X3.5203Y-2.101
X3.5203Y-2.201
X3.5203Y-2.301
X3.5203Y-2.401
X3.5203Y-2.501
X3.5203Y-2.601
X3.5203Y-2.701
X3.5203Y-2.801
X3.7953Y-1.439
X3.7953Y-1.539
X3.7953Y-1.639
X3.7953Y-1.8524
X3.7953Y-1.9524
X3.7953Y-2.0524
X4.0953Y-1.439
X4.0953Y-1.539
X4.0953Y-1.639
X4.0953Y-1.8524
X4.0953Y-1.9524
X4.0953Y-2.0524
X5.2138Y-0.9394
X5.2138Y-1.0394
X5.2138Y-1.1394
X5.2138Y-1.2394
X5.2256Y-1.5811
X5.2256Y-1.6811
X5.2256Y-1.7811
X5.2256Y-1.8811
X5.5138Y-0.9394
X5.5138Y-1.0394
X5.5138Y-1.1394
X5.5138Y-1.2394
X5.5256Y-1.5811
X5.5256Y-1.6811
X5.5256Y-1.7811
X5.5256Y-1.8811
T4
X3.7343Y-0.9606
X3.8343Y-0.9606
X4.2343Y-0.9606
X4.3343Y-0.9606
X4.4343Y-0.9606
T5
X2.9055Y-3.6618
X2.9055Y-3.7618
T6
X3.5248Y-0.9984
X3.5248Y-1.0984
X3.5248Y-1.1984
X3.9488Y-3.4173
X4.1496Y-2.4173
X4.1496Y-4.4173
X4.3504Y-3.4173
T7
X2.9055Y-4.0618
X2.9055Y-4.3618
T8
X2.3031Y-4.6358
X2.3031Y-4.8012
X2.3031Y-6.0039
X2.3047Y-5.3858
X2.3362Y-1.5453
X2.3362Y-1.7106
X2.5197Y-4.6358
X2.5197Y-4.8012
X2.5197Y-6.0039
X2.5213Y-5.3858
X2.5528Y-1.5453
X2.5528Y-1.7106
X7.5709Y-1.0453
X7.5709Y-1.2618
X7.7362Y-1.0453
X7.7362Y-1.2618
T9
X3.7421Y-4.9528
X3.7421Y-6.5276
T10
X4.4803Y-5.122
X4.4803Y-5.3386
X4.4803Y-6.1417
X4.4803Y-6.3583
M30
